<?xml version="1.0" standalone="no"?>
<!DOCTYPE svg PUBLIC "-//W3C//DTD SVG 20010904//EN"
 "http://www.w3.org/TR/2001/REC-SVG-20010904/DTD/svg10.dtd">
<svg version="1.0" xmlns="http://www.w3.org/2000/svg"
 width="3912.000000pt" height="2832.000000pt" viewBox="0 0 3912.000000 2832.000000"
 preserveAspectRatio="xMidYMid meet">

<g transform="translate(0.000000,2832.000000) scale(0.100000,-0.100000)"
fill="#000000" stroke="none">
<path d="M0 26761 c0 -1238 3 -1560 12 -1564 107 -41 13365 -5491 13370 -5496
3 -3 -3005 -1255 -6685 -2781 l-6692 -2776 -3 -1557 c-1 -856 1 -1557 4 -1557
5 0 15685 6699 16702 7135 l202 87 -2 1465 -3 1466 -8440 3563 c-4642 1960
-8446 3566 -8452 3569 -10 3 -13 -311 -13 -1554z"/>
<path d="M18340 1130 l0 -1130 10390 0 10390 0 0 1130 0 1130 -10390 0 -10390
0 0 -1130z"/>
</g>
</svg>
